<?xml version="1.0" encoding="utf-8"?><svg viewBox="0 0 97 87" xmlns="http://www.w3.org/2000/svg"
    xmlns:xlink="http://www.w3.org/1999/xlink">
    <style>
        :root>svg {
            display: none
        }

        :root>svg:target {
            display: block
        }
    </style>
    
    <svg fill="none" viewBox="0 0 57 72" id="hero-06" xmlns="http://www.w3.org/2000/svg">
        <rect x="1.5" y="1" width="54" height="70" rx="3" stroke-width="2" />
        <path d="M9.5 1h38v5a3 3 0 01-3 3h-32a3 3 0 01-3-3V1z" stroke-width="2" />
        <g filter="url(#gfilter0_d)">
            <path d="M9.5 57a3 3 0 013-3h32a3 3 0 013 3v2a3 3 0 01-3 3h-32a3 3 0 01-3-3v-2z" stroke="#00C368"
                stroke-width="2" />
        </g>
        <defs>
            <filter id="gfilter0_d" x="6.5" y="51" width="48" height="18" filterUnits="userSpaceOnUse"
                color-interpolation-filters="sRGB">
                <feFlood flood-opacity="0" result="BackgroundImageFix" />
                <feColorMatrix in="SourceAlpha" values="0 0 0 0 0 0 0 0 0 0 0 0 0 0 0 0 0 0 127 0" result="hardAlpha" />
                <feOffset dx="2" dy="2" />
                <feGaussianBlur stdDeviation="2" />
                <feColorMatrix values="0 0 0 0 0 0 0 0 0 0.764706 0 0 0 0 0.407843 0 0 0 0.4 0" />
                <feBlend in2="BackgroundImageFix" result="effect1_dropShadow" />
                <feBlend in="SourceGraphic" in2="effect1_dropShadow" result="shape" />
            </filter>
        </defs>
    </svg>
    
    <svg fill="none" viewBox="0 0 19 11" id="arrow-down" xmlns="http://www.w3.org/2000/svg">
        <path
            d="M18.7.3c-.4-.4-1-.4-1.4 0L9.5 8.1 1.7.3C1.3-.1.7-.1.3.3c-.4.4-.4 1 0 1.4l8.5 8.5c.4.4 1 .4 1.4 0l8.5-8.5c.4-.4.4-1 0-1.4z"
            fill="#A6ABBD" /></svg><svg fill="none" viewBox="0 0 11 19" id="arrow-left"
        xmlns="http://www.w3.org/2000/svg">
        <path
            d="M10.2 18.7c.4-.4.4-1 0-1.4L2.4 9.5l7.8-7.8c.4-.4.4-1 0-1.4-.4-.4-1-.4-1.4 0L.3 8.8c-.4.4-.4 1 0 1.4l8.5 8.5c.4.4 1 .4 1.4 0z"
            fill="#A6ABBD" /></svg><svg fill="none" viewBox="0 0 11 19" id="arrow-right"
        xmlns="http://www.w3.org/2000/svg">
        <path
            d="M.3.3c-.4.4-.4 1 0 1.4l7.8 7.8-7.8 7.8c-.4.4-.4 1 0 1.4.4.4 1 .4 1.4 0l8.5-8.5c.4-.4.4-1 0-1.4L1.7.3C1.3-.1.7-.1.3.3z"
            fill="#A6ABBD" /></svg><svg fill="none" viewBox="0 0 64 73" id="hero-01" xmlns="http://www.w3.org/2000/svg">
        <path d="M60 39.5V25C60 11.745 49.255 1 36 1h-8C14.745 1 4 11.745 4 25v14.5"
            stroke-width="2" />
        <path d="M55 31v8c0 12.703-10.297 23-23 23S9 51.703 9 39v-8C9 18.297 19.297 8 32 8s23 10.297 23 23z"
            stroke-width="2" />
        <path d="M29.5 70.5H36c13.255 0 24-10.745 24-24V36" stroke-width="2" />
        <rect x="1" y="32" width="6" height="14" rx="3" stroke-width="2" />
        <rect x="57" y="32" width="6" height="14" rx="3" stroke-width="2" /></svg>
        <svg fill="none"
        viewBox="0 0 74 86" id="hero-02" xmlns="http://www.w3.org/2000/svg">
        <circle cx="31.69" cy="73.411" r="7" transform="rotate(-15 31.69 73.41)" stroke-width="2" />
        <path stroke-width="2" d="M30.997 32.185l28.978-7.765 7.764 28.978-28.978 7.765z" />
        <g filter="url(#efilter0_d)">
            <path stroke="#00C368" stroke-width="2" d="M43.105 31.011l5.795-1.553 2.071 7.728-5.796 1.552z" />
        </g>
        <defs>
            <filter id="efilter0_d" x="39.88" y="26.234" width="18.316" height="19.73" filterUnits="userSpaceOnUse"
                color-interpolation-filters="sRGB">
                <feFlood flood-opacity="0" result="BackgroundImageFix" />
                <feColorMatrix in="SourceAlpha" values="0 0 0 0 0 0 0 0 0 0 0 0 0 0 0 0 0 0 127 0" result="hardAlpha" />
                <feOffset dx="2" dy="2" />
                <feGaussianBlur stdDeviation="2" />
                <feColorMatrix values="0 0 0 0 0 0 0 0 0 0.764706 0 0 0 0 0.407843 0 0 0 0.4 0" />
                <feBlend in2="BackgroundImageFix" result="effect1_dropShadow" />
                <feBlend in="SourceGraphic" in2="effect1_dropShadow" result="shape" />
            </filter>
        </defs>
    </svg><svg fill="none" viewBox="0 0 97 87" id="hero-03" xmlns="http://www.w3.org/2000/svg">
        <path
            d="M15.16 61.542c-5.857-5.858-5.857-15.355 0-21.213l25.554-25.553c5.858-5.858 15.355-5.858 21.213 0l4.448 4.448c6.364 6.364 5.74 16.899-1.145 22.78-3.85 3.29-7.849 6.845-11.044 10.005-3.74 3.7-7.974 8.436-11.789 12.888-5.884 6.866-16.406 7.475-22.762 1.119l-4.474-4.474z"
            stroke-width="2" />
        <path
            d="M13.136 59.287c-5.37-5.37-5.872-13.882-1.01-19.666 4.383-5.212 9.662-11.246 14.176-15.71 3.978-3.935 9.252-8.521 13.933-12.44 5.785-4.843 14.285-4.332 19.647 1.03l.4.4c6.365 6.364 5.74 16.899-1.145 22.78-3.85 3.29-7.848 6.845-11.043 10.005-3.74 3.7-7.975 8.436-11.79 12.888-5.883 6.866-16.406 7.475-22.762 1.12l-.406-.407z"
            stroke-width="2" />
        <rect x="34.152" y="26.767" width="15.665" height="15.665" rx="7.833" transform="rotate(-45 34.152 26.767)"
            stroke-width="2" />
        <rect x="69.5" y="64" width="26" height="22" rx="1" stroke-width="2" />
        <path d="M71.5 41c7 2 11 5 11 15.999" stroke-width="2" /></svg>
        <svg fill="none" viewBox="0 0 40 26" id="quotes" xmlns="http://www.w3.org/2000/svg">
        <path
            d="M20.52 9.458C20.52 4.234 24.868 0 30.233 0c5.365 0 9.26 4.088 9.714 9.293C40.64 17.235 34.444 23.884 26.92 26c2.565-1.51 4.354-4.135 4.652-7.189-.44.061-.883.104-1.339.104-5.365 0-9.713-4.234-9.713-9.457zM0 9.458C0 4.234 4.35 0 9.714 0s9.26 4.088 9.714 9.293C20.122 17.235 13.925 23.884 6.401 26c2.565-1.51 4.353-4.135 4.652-7.189-.44.061-.884.104-1.339.104C4.35 18.915 0 14.681 0 9.458z"
            fill="#E7EBF0" /></svg><svg fill="none" viewBox="0 0 40 26" id="quotes-green"
        xmlns="http://www.w3.org/2000/svg">
        <path
            d="M19.48 16.543c0 5.223-4.348 9.457-9.713 9.457-5.365 0-9.26-4.088-9.714-9.293C-.64 8.765 5.556 2.116 13.08 0c-2.564 1.51-4.353 4.135-4.651 7.189.44-.061.883-.104 1.339-.104 5.365 0 9.713 4.234 9.713 9.457zM40 16.543C40 21.765 35.651 26 30.286 26s-9.26-4.088-9.714-9.293C19.878 8.765 26.075 2.116 33.599 0c-2.565 1.51-4.353 4.135-4.652 7.189a9.75 9.75 0 011.339-.104c5.365 0 9.714 4.234 9.714 9.457z"
            fill="#00C368" /></svg>
            <svg fill="none" viewBox="0 0 33 33" id="s2-1" xmlns="http://www.w3.org/2000/svg">
        <path
            d="M7.67 26.054a7.018 7.018 0 010-9.925l8.465-8.465a7.01 7.01 0 019.914 0c2.972 2.973 2.677 7.891-.518 10.677a75.499 75.499 0 00-3.377 3.102c-1.205 1.193-2.538 2.654-3.804 4.104-2.788 3.192-7.708 3.48-10.68.507z"
            fill="#fff" />
        <path
            d="M6.106 24.398c-2.132-2.131-2.33-5.508-.401-7.799 1.723-2.047 3.783-4.398 5.547-6.143 1.551-1.535 3.604-3.322 5.44-4.86 2.29-1.92 5.661-1.72 7.79.409 2.523 2.524 2.278 6.706-.456 9.045-1.496 1.281-3.043 2.66-4.285 3.888-1.458 1.442-3.104 3.28-4.595 5.016-2.34 2.727-6.519 2.966-9.04.444z"
            fill="#fff" />
        <rect x="14.435" y="11.515" width="6" height="6" rx="3" transform="rotate(-45 14.435 11.515)" fill="#FFD058"
            />
        <g filter="url(#jfilter0_d)">
            <rect x="8" y="20" width="2" height="2" rx="1" transform="rotate(-45 8 20)" fill="#00C368" />
        </g>
        <defs>
            <filter id="jfilter0_d" x="7" y="17.586" width="6.828" height="6.828" filterUnits="userSpaceOnUse"
                color-interpolation-filters="sRGB">
                <feFlood flood-opacity="0" result="BackgroundImageFix" />
                <feColorMatrix in="SourceAlpha" values="0 0 0 0 0 0 0 0 0 0 0 0 0 0 0 0 0 0 127 0" result="hardAlpha" />
                <feOffset dx="1" dy="1" />
                <feGaussianBlur stdDeviation="1" />
                <feColorMatrix values="0 0 0 0 0 0 0 0 0 0.764706 0 0 0 0 0.407843 0 0 0 0.8 0" />
                <feBlend in2="BackgroundImageFix" result="effect1_dropShadow" />
                <feBlend in="SourceGraphic" in2="effect1_dropShadow" result="shape" />
            </filter>
        </defs>
    </svg><svg fill="none" viewBox="0 0 16 21" id="s2-2" xmlns="http://www.w3.org/2000/svg">
        <path d="M.5 8a7.5 7.5 0 1115 0v7.5H.5V8z" fill="#fff" />
        <path fill="#2E3A59" d="M2 16h2v5H2zM12 16h2v5h-2z" />
        <path fill="#A6ABBD" d="M1 13h14v2H1z" /></svg><svg fill="none" viewBox="0 0 30 33" id="s2-3"
        xmlns="http://www.w3.org/2000/svg">
        <rect x="3.5" y=".5" width="23" height="23" rx="11.5" fill="#fff" />
        <rect x="11.5" y="28.5" width="7" height="4" rx="1.5" fill="#FFD058" />
        <path d="M9.5 22.5h11V29a1.5 1.5 0 01-1.5 1.5h-8A1.5 1.5 0 019.5 29v-6.5z" fill="#A6ABBD" />
        <path fill="#2E3A59"
            d="M10 24h1v1h-1zM19 24h1v1h-1zM10 26h1v1h-1zM19 26h1v1h-1zM10 28h1v1h-1zM19 28h1v1h-1zM.99 29.803L28.79 2.005l.707.707L1.697 30.51z" />
        </svg><svg fill="none" viewBox="0 0 24 28" id="s2-4" xmlns="http://www.w3.org/2000/svg">
        <path fill="#2E3A59" d="M9 9h1v10H9z" />
        <path fill="#2E3A59" d="M9 9h1v10H9z" />
        <path fill="#2E3A59" d="M9 9h1v10H9z" />
        <path fill="#2E3A59" d="M14.567 3.358l.866.5-6.684 11.577-.866-.5z" />
        <path fill="#2E3A59" d="M14.567 3.358l.866.5-6.684 11.577-.866-.5z" />
        <path fill="#2E3A59" d="M14.567 3.358l.866.5-6.684 11.577-.866-.5z" />
        <path fill="#2E3A59" d="M19.142 7.567l.5.866L9.183 14.47l-.5-.866z" />
        <path fill="#2E3A59" d="M19.142 7.567l.5.866L9.183 14.47l-.5-.866z" />
        <path fill="#2E3A59" d="M19.142 7.567l.5.866L9.183 14.47l-.5-.866z" />
        <path fill="#2E3A59" d="M19.643 19.567l-.5.866-11.374-6.567.5-.866z" />
        <path fill="#2E3A59" d="M19.643 19.567l-.5.866-11.374-6.567.5-.866z" />
        <path fill="#2E3A59" d="M19.643 19.567l-.5.866-11.374-6.567.5-.866z" />
        <path fill="#2E3A59" d="M15.433 24.143l-.866.5-7.794-13.5.866-.5z" />
        <path fill="#2E3A59" d="M15.433 24.143l-.866.5-7.794-13.5.866-.5z" />
        <path fill="#2E3A59" d="M15.433 24.143l-.866.5-7.794-13.5.866-.5z" />
        <rect y="7" width="14" height="14" rx="7" fill="#E7EBF0" />
        <path fill="#2E3A59" d="M6 2h1v24H6z" />
        <path d="M21 14h-7" />
        <path d="M6.5 8.522a5.5 5.5 0 010 10.956V8.522z" fill="#fff" />
        <rect x="14.5" y=".5" width="3" height="3" rx="1.5" fill="#FFD058" />
        <rect x="19.5" y="5.5" width="3" height="3" rx="1.5" fill="#FFD058" />
        <rect x="20.5" y="12.5" width="3" height="3" rx="1.5" fill="#FFD058" />
        <rect x="19.5" y="19.5" width="3" height="3" rx="1.5" fill="#FFD058" />
        <rect x="14.5" y="24.5" width="3" height="3" rx="1.5" fill="#FFD058" /></svg><svg fill="none"
        viewBox="0 0 24 27" id="s2-5" xmlns="http://www.w3.org/2000/svg">
        <rect x=".5" y="3.5" width="23" height="23" rx="11.5" />
        <rect x="4.5" y="7.5" width="15" height="15" rx="7.5" />
        <path fill="#E7EBF0" d="M8 0h8v12H8z" />
        <rect x="10.5" y=".5" width="3" height="11" rx="1.5" fill="#FFD058" /></svg>
</svg>